<svg id="Layer_2" xmlns="http://www.w3.org/2000/svg" viewBox="221.98 377.47 556.05 245.08">
  <defs>
    <style>
      .cls-1 {
        fill: #283d90;
      }

      .cls-2 {
        fill: #e27739;
      }
    </style>
  </defs>
  <path class="cls-1" d="M245.08,572.81c.06,15.94,12.56,29.35,28.34,29.29,15.78-.06,28.18-13.55,28.13-29.49-.06-16.28-12.56-29.35-28.34-29.29-15.78.06-28.19,13.22-28.13,29.49M324.63,572.53c.1,27.4-22.57,49.9-51.14,50-28.56.1-51.4-22.24-51.49-49.64-.1-27.57,22.57-49.9,51.14-50,28.56-.1,51.39,22.07,51.49,49.64"/>
  <path class="cls-1" d="M396.89,583.84l.13,36.39-22.25.08-.14-40.69c-.01-3.65-1.04-11.12-9.01-11.09-9.3.03-9.93,10.5-9.91,14.15l.13,37.7-22.42.08-.25-70.41,22.42-.08.02,6.14c6.28-7.83,16.58-8.03,17.57-8.04,9.63-.03,15.3,4.93,18.64,10.56,6.77-10.65,19.23-10.7,20.22-10.7,22.25-.08,26.14,19.51,26.17,27.31l.16,44.84-22.25.08-.14-40.68c-.01-3.65-1.04-11.12-9.01-11.1-5.58.02-8.09,4.87-9.21,8.75-.63,2.18-.87,4.44-.86,6.71"/>
  <path class="cls-1" d="M502.25,584.63c-.04-9.63-7.53-16.58-17.16-16.55-9.3.03-16.75,7.04-16.71,16.67.03,9.63,7.53,16.58,16.83,16.55,9.63-.04,17.08-7.03,17.05-16.67M502.12,549.42l22.42-.08.25,70.41-22.42.08-.02-6.14c-5.46,6.16-12.93,8.02-20.73,8.05-19.76.07-35.6-16.48-35.67-36.9-.07-20.43,15.65-37.09,35.41-37.16,7.81-.03,15.28,1.77,20.78,7.9l-.02-6.14Z"/>
  <path class="cls-1" d="M582.14,580.5c-.01-3.65-.05-12.79-11.01-12.75-9.97.04-12.25,10.51-12.24,14.16l.13,37.7-22.42.08-.25-70.41,22.42-.08.02,6.15c6.28-7.83,17.91-8.04,18.9-8.04,25.41-.09,26.66,26.14,26.67,27.31l.16,44.84-22.25.08-.14-39.03Z"/>
  <path class="cls-1" d="M612.03,548.89h51.81l.07,20.34-16.77.06.08,22.09s-.13,9.3,9.67,9.26h6.97l.07,18.63s-7.47-.02-13.78,0c-3.65.01-25.07.09-25.17-27.64l-.08-22.25-12.79.05-.07-20.52Z"/>
  <path class="cls-1" d="M707.43,567.22c-6.48.02-11.95,3.03-14.25,10.35l28.4-.1c-2.18-7.3-7.67-10.27-14.15-10.25M743.23,592.5l-49.15.18c2.67,4.8,7.67,7.77,13.48,7.75,0,0,9.47-.03,16.92-4.55l14.33,14.9s-12.92,10.01-30.85,10.07c-21.26.08-38.42-16.47-38.5-36.9-.07-20.42,16.97-37.09,38.23-37.17,18.43-.07,35.42,13.33,35.5,37.57l.03,8.14Z"/>
  <rect class="cls-1" x="755.57" y="519.34" width="22.25" height="99.48" transform="translate(-2.03 2.74) rotate(-.2)"/>
  <rect class="cls-2" x="624.86" y="517.22" width="26.23" height="26.23" transform="translate(-188.14 606.45) rotate(-45)"/>
  <rect class="cls-1" x="450.16" y="389.12" width="20.33" height="20.33"/>
  <rect class="cls-1" x="422.8" y="389.12" width="20.33" height="20.33"/>
  <path class="cls-1" d="M494.26,415.46l-.07,27.5s.12,9.55-8.89,9.51h-14.73v23.65h22.21v-.02c5.46-.19,21.8-2.45,21.88-28.35l.07-32.29h-20.47Z"/>
  <path class="cls-1" d="M461.63,415.46v.02h-11.61l-.07,27.5s.12,9.54-8.89,9.51h-5.26v-.02h-114.91c-3.55,0-6.23-.31-8.04-.93-1.82-.62-3.06-1.75-3.72-3.39-.59-1.45-.9-3.4-.97-5.79v-64.88h-20.46v63.96h-.03c0,.44.02.86.03,1.29v20.18c0,11.4-9.24,20.64-20.64,20.64s-20.64-9.24-20.64-20.64v-27.16h-20.46v27.16c0,22.7,18.4,41.11,41.11,41.11,18.91,0,34.79-12.79,39.59-30.17,4.11,1.52,8.86,2.28,14.25,2.28h.77v.02h114.14c2.23,0,1.36,0,5.68,0,29.08,0,29.08-19.88,29.08-19.88l-.07-40.81h-8.86Z"/>
  <path class="cls-1" d="M653.7,449.27c0,2.55-.4,4.95-1.21,7.19-.81,2.25-1.97,4.22-3.5,5.92-1.53,1.7-3.37,3.04-5.54,4.01-2.16.98-4.65,1.47-7.45,1.47s-5.16-.51-7.32-1.53c-2.16-1.02-4.05-2.4-5.67-4.14-1.61-1.74-2.85-3.73-3.69-5.98-.85-2.25-1.27-4.65-1.27-7.19v-.25c0-2.55.4-4.94,1.21-7.19.81-2.25,1.97-4.22,3.5-5.92,1.53-1.7,3.37-3.03,5.54-4.01,2.16-.97,4.65-1.46,7.45-1.46,2.63,0,5.05.51,7.26,1.53,2.21,1.02,4.12,2.4,5.73,4.14,1.61,1.74,2.84,3.74,3.69,5.98.85,2.25,1.27,4.65,1.27,7.19v.26ZM743.98,421.54h34.02v-22.95h-34.02c-21.22,0-38.41,17.2-38.41,38.41,0,5.5,1.18,10.73,3.26,15.46h-19.45c-3.19,0-5.69-.27-7.51-.8-1.82-.53-3.08-1.48-3.79-2.86-.71-1.37-1.25-2.88-1.43-5.36l-.12-.49c-.48-3.34-1.34-6.56-2.67-9.61-2.08-4.77-4.94-8.93-8.58-12.48-3.64-3.54-7.97-6.33-12.98-8.37-5.01-2.03-10.45-3.05-16.31-3.05s-11.44,1.04-16.45,3.12c-5.01,2.08-9.36,4.92-13.05,8.51-3.69,3.59-6.57,7.78-8.65,12.55-1.52,3.49-2.47,7.18-2.88,11.05l-.02.1c0,.05,0,.09-.01.14,0,.05,0,.1-.01.16-.17,2.18-.38,2.42-1.05,3.74-.71,1.37-1.97,2.33-3.79,2.86-1.81.53-4.32.8-7.51.8h-22.18c-9.01.04-8.89-9.51-8.89-9.51l-.07-22.66h0s0-42.82,0-42.82h-20.46v70.27l.08.09c.13,28.37,19.8,28.3,23.16,28.28.53,0,1.07,0,1.61,0h0s21.86,0,21.86,0h4.92c.41,0,.8-.02,1.2-.03.03,0,.06.03.09.03v-.03c6.09-.17,11.36-1.49,15.79-4.02.58-.33,1.14-.68,1.68-1.04,1.49,2.22,3.18,4.27,5.1,6.14,3.64,3.55,7.96,6.33,12.98,8.37,5.01,2.03,10.44,3.05,16.31,3.05s11.44-1.04,16.45-3.12c5.01-2.08,9.36-4.91,13.04-8.51,1.93-1.88,3.63-3.93,5.12-6.14.63.44,1.29.86,1.97,1.25,4.74,2.7,10.43,4.05,17.08,4.05h88.62v-23.65h-34.02c-8.54,0-15.46-6.92-15.46-15.46s6.92-15.46,15.46-15.46"/>
  <rect class="cls-2" x="489.89" y="382.9" width="26.23" height="26.23" transform="translate(-132.7 471.67) rotate(-45)"/>
</svg>