<?xml version="1.0" encoding="UTF-8" standalone="no"?>
<svg
   width="464.43329"
   height="95.487541"
   viewBox="0 0 464.43328 95.48754"
   fill="none"
   version="1.1"
   id="svg7"
   sodipodi:docname="logo-sinch.svg"
   inkscape:version="1.4 (e7c3feb1, 2024-10-09)"
   xmlns:inkscape="http://www.inkscape.org/namespaces/inkscape"
   xmlns:sodipodi="http://sodipodi.sourceforge.net/DTD/sodipodi-0.dtd"
   xmlns="http://www.w3.org/2000/svg"
   xmlns:svg="http://www.w3.org/2000/svg">
  <defs
     id="defs7" />
  <sodipodi:namedview
     id="namedview7"
     pagecolor="#505050"
     bordercolor="#eeeeee"
     borderopacity="1"
     inkscape:showpageshadow="0"
     inkscape:pageopacity="0"
     inkscape:pagecheckerboard="0"
     inkscape:deskcolor="#505050"
     inkscape:current-layer="svg7" />
  <mask
     id="mask0_5105_11820"
     maskUnits="userSpaceOnUse"
     x="0"
     y="0"
     width="124"
     height="32">
    <path
       fill-rule="evenodd"
       clip-rule="evenodd"
       d="M 0,32 H 124 V 0 H 0 Z"
       fill="#ffffff"
       id="path1" />
  </mask>
  <g
     mask="url(#mask0_5105_11820)"
     id="g7"
     transform="matrix(3.7692307,0,0,3.7692307,0,-10.051294)">
    <path
       d="m 112.306,10.326 c 1.066,-0.7312 2.324,-1.13242 3.619,-1.15442 4.301,0 7.292,2.93792 7.292,7.29152 v 8.2946 h -3.93 v -7.9251 c 0,-2.4143 -1.468,-3.8309 -3.461,-3.8309 -2.152,0 -3.464,1.5283 -3.464,3.8309 v 7.9207 h -3.946 V 4.92355 l 3.89,-2.25688 z"
       fill="currentColor"
       id="path2" />
    <path
       d="m 37.0553,9.73034 c 1.5292,0.55516 2.835,1.55386 3.7729,2.88686 0.9379,1.333 1.4359,2.8992 1.4456,4.5314 h -0.0026 c 0.0149,1.6286 -0.4646,3.2009 -1.3858,4.5445 -0.9221,1.3445 -2.2155,2.3581 -3.7412,2.9318 -2.6237,1.0241 -5.7103,0.6625 -8.686,-1.0189 l -1.8398,-1.0603 c -0.4408,0.469 -0.9388,0.8816 -1.4817,1.2274 l -0.0123,0.0071 -7.2272,4.2199 V 23.803 l 10.8443,-6.3491 -0.0853,0.7136 c -0.0493,0.4153 -0.1329,0.8288 -0.2499,1.2318 l 1.838,1.0514 c 2.5569,1.4536 4.4433,1.2327 5.5757,0.791 0.6045,-0.2305 1.1588,-0.5974 1.6049,-1.0611 0.447,-0.4637 0.7919,-1.0312 0.9977,-1.6418 0.1408,-0.4409 0.2121,-0.9054 0.2103,-1.3744 -0.0017,-0.8904 -0.2736,-1.7439 -0.7874,-2.4707 -0.5148,-0.7259 -1.2292,-1.2661 -2.0677,-1.5635 -1.1447,-0.4312 -3.0347,-0.6309 -5.5731,0.8543 L 13.9211,23.5188 13.893,23.5364 C 12.0549,24.6125 10.1166,25.1871 8.28911,25.1985 7.24031,25.2091 6.20648,25.0278 5.22191,24.66 3.28357,23.9473 1.71566,22.5316 0.8094,20.6742 -0.0968587,18.8168 -0.247317,16.7104 0.384425,14.7421 0.757487,13.6194 1.38571,12.5767 2.19958,11.7233 3.01346,10.8698 4.0253,10.194 5.12601,9.76905 7.76559,8.73784 10.8522,9.09947 13.8155,10.7871 l 1.8381,1.0593 c 0.4417,-0.4689 0.9405,-0.8816 1.4852,-1.2274 l 0.0079,-0.0053 0.3845,-0.227 -2.8006,-1.58639 C 14.3496,8.54427 14.0812,8.15624 13.9757,7.71015 13.8692,7.26317 13.9361,6.79684 14.1622,6.39737 14.3883,5.99791 14.7535,5.70051 15.1908,5.56061 15.628,5.42071 16.0979,5.45063 16.5141,5.64508 l 0.0264,0.0132 4.5902,2.62555 4.5067,-2.61675 0.0132,-0.00616 c 0.4117,-0.19709 0.8789,-0.23141 1.3154,-0.09767 0.4372,0.13462 0.805,0.42498 1.0356,0.81829 0.2314,0.3933 0.3053,0.85611 0.2094,1.30221 -0.0968,0.4461 -0.3546,0.83676 -0.7268,1.10072 l -0.0282,0.0176 -13.922,8.03763 0.095,-0.7188 c 0.0502,-0.3801 0.1293,-0.7594 0.2367,-1.1289 L 12.0268,13.9405 C 9.47077,12.4861 7.5861,12.7087 6.45372,13.1513 c -0.84027,0.3115 -1.54856,0.8614 -2.05448,1.5934 -0.5068,0.7321 -0.77076,1.5891 -0.76548,2.4786 0.0044,0.8896 0.27979,1.7431 0.79451,2.469 0.51384,0.7259 1.22829,1.2679 2.0668,1.567 1.14294,0.4321 3.03201,0.6318 5.57133,-0.8543 l 16.3197,-9.5537 c 1.8362,-1.07433 3.7746,-1.64801 5.6038,-1.65945 1.0497,-0.01055 2.0818,0.1707 3.0654,0.53849 z"
       fill="currentColor"
       id="path3" />
    <path
       d="m 59.8531,15.324 c 0.2642,0.063 0.541,0.1289 0.8274,0.2008 2.886,0.7338 5.09,1.7307 5.0909,4.6167 0,2.9907 -2.9378,5.0355 -6.6113,5.0355 -3.0425,-0.0044 -5.3513,-0.842 -6.8207,-3.2564 l 3.4641,-1.9929 c 0.681,1.3646 1.8345,2.0466 3.4613,2.0448 1.5275,0 2.4663,-0.681 2.4663,-1.6788 0,-0.9978 -1.3101,-1.3101 -3.5687,-1.7835 -3.0954,-0.6828 -5.0883,-1.9401 -5.0883,-4.5639 0,-2.8376 2.8851,-4.77598 6.0852,-4.77598 2.7284,0 4.6157,0.73557 6.2945,2.83758 l -3.3048,1.89 c -0.6282,-1.0911 -1.574,-1.626 -2.9378,-1.626 -1.4166,0 -2.2023,0.6291 -2.2023,1.4694 0,0.9048 1.1734,1.1845 2.8442,1.5827 z"
       fill="currentColor"
       id="path4" />
    <path
       d="M 67.8681,24.7577 71.751,24.7533 V 9.17164 l -3.8829,2.27186 z"
       fill="currentColor"
       id="path5" />
    <path
       d="m 81.8764,9.17164 c -4.3025,0 -7.397,3.20186 -7.397,7.39976 v 8.1872 l 3.9401,-0.0044 v -7.9206 c 0,-2.3026 1.3118,-3.831 3.464,-3.831 1.9929,0 3.4614,1.4166 3.4614,3.831 v 7.9206 h 3.9294 v -8.1828 c 0,-3.9885 -3.032,-7.39976 -7.3979,-7.39976 z"
       fill="currentColor"
       id="path6" />
    <path
       d="m 95.3481,17.1468 c 0,2.4144 1.626,4.2498 4.0403,4.2498 1.5736,0 2.9386,-0.7875 3.5666,-2.0985 l 3.357,1.9428 c -0.692,1.2081 -1.693,2.2094 -2.901,2.9001 -1.208,0.6907 -2.578,1.0461 -3.9698,1.0285 -4.658,0.0044 -8.0754,-3.3532 -8.0754,-8.0218 0,-4.6686 3.3567,-7.97517 8.0754,-7.97517 2.9368,0 5.5588,1.52747 6.8178,3.88287 l -3.356,1.9947 c -0.33,-0.645 -0.835,-1.1834 -1.456,-1.5547 -0.622,-0.3714 -1.335,-0.5605 -2.0586,-0.5456 -2.3088,0 -4.0403,1.7307 -4.0403,4.197 z"
       fill="currentColor"
       id="path7" />
  </g>
</svg>
